<?xml version="1.0" encoding="utf-8"?>
<!-- Generator: Adobe Illustrator 26.0.1, SVG Export Plug-In . SVG Version: 6.00 Build 0)  -->
<svg version="1.1" id="레이어_1" xmlns="http://www.w3.org/2000/svg" xmlns:xlink="http://www.w3.org/1999/xlink" x="0px"
	 y="0px" viewBox="0 0 72 60" style="enable-background:new 0 0 72 60;" xml:space="preserve">
<style type="text/css">
	.st0{fill:#EFBE50;}
</style>
<g>
	<path class="st0" d="M2.8,24.1h26.7c6.5,0,11.8-5.3,11.8-11.8c0-6.5-5.3-11.8-11.8-11.8S17.7,5.7,17.7,12.2c0,1.1,0.9,2,2,2
		s2-0.9,2-2c0-4.3,3.5-7.8,7.8-7.8s7.8,3.5,7.8,7.8s-3.5,7.8-7.8,7.8H2.8c-1.1,0-2,0.9-2,2S1.7,24.1,2.8,24.1z"/>
	<path class="st0" d="M57.9,6c-7.7,0-14,6.3-14,14c0,1.1,0.9,2,2,2s2-0.9,2-2c0-5.5,4.5-10,10-10s10,4.5,10,10s-4.5,10-10,10H2.8
		c-1.1,0-2,0.9-2,2s0.9,2,2,2h55.1c7.7,0,14-6.3,14-14S65.6,6,57.9,6z"/>
	<path class="st0" d="M33.4,39.8H2.8c-1.1,0-2,0.9-2,2s0.9,2,2,2h30.6c3.3,0,6,2.7,6,6s-2.7,6-6,6s-6-2.7-6-6c0-1.1-0.9-2-2-2
		s-2,0.9-2,2c0,5.5,4.5,10,10,10s10-4.5,10-10S38.9,39.8,33.4,39.8z"/>
</g>
</svg>
