<svg enable-background="new 0 0 229 72" viewBox="0 0 229 72" xmlns="http://www.w3.org/2000/svg"><path d="m115.4.6-31.7 12.7v58.1h63.4v-58.1z" fill="#fff"/><g fill="#efbe50"><path d="m123.1 13.8c-5-1.9-10.4-1.9-15.4 0-.9.3-1.8-.1-2.2-.9-.4-.9 0-2 .9-2.4 0 0 .1 0 .1-.1 5.7-2.1 12.1-2.1 17.8 0 .9.3 1.4 1.4 1.1 2.3s0 .1-.1.1c-.3.9-1.3 1.3-2.2 1"/><path d="m120.2 19.2c-3.1-1-6.4-1-9.4 0-.9.3-2-.2-2.3-1.1s.1-1.8 1-2.2c.1 0 .1 0 .2-.1 3.8-1.3 8-1.3 11.8 0 .9.3 1.4 1.4 1.1 2.3 0 .1 0 .1-.1.2-.5.7-1.5 1.1-2.3.9"/><path d="m128.6 59.6h-20.4v-4.3h-7.2v7.9c0 2 1.6 3.6 3.6 3.6h24c2 0 3.6-1.6 3.6-3.6s-1.6-3.6-3.6-3.6"/><path d="m128.6 48.8h-8.4v-3.6h-8.4v3.6h-9.6c-2 0-3.6 1.6-3.6 3.6s1.6 3.6 3.6 3.6h26.4c2 0 3.6-1.6 3.6-3.6s-1.6-3.6-3.6-3.6"/><path d="m128.3 33.2c0-7.3-5.8-13.2-13-13.2s-13 5.9-13 13.2 5.8 13.2 13 13.2c7.2 0 13-5.9 13-13.2m-18.9 0c0-3.3 2.7-6 5.9-6 3.3 0 5.9 2.7 5.9 6s-2.7 6-5.9 6c-3.3 0-5.9-2.7-5.9-6z"/></g><path d="m18.9 57.9c-1.4.2-2.8.3-4.3.3h-13.8v-18h19.5v5.3h-13.2v7.5h7.7c1.5 0 2.8-.1 4.1-.3s2.4-.4 3.2-.8v5.2c-.8.3-1.9.6-3.2.8zm-10.6 7.9h22v5.6h-28.4v-11h6.4zm25.3-19.7v6.1h-3.7v11.1h-6.3v-23.5h6.3v6.3z" fill="#fff"/><path d="m60.1 64.5h12.8v5.9h-32v-5.9h12.8v-7h6.4zm-10.1-7.1c-2.6 1.4-5.5 2.1-8.5 2.1v-5.9c2.1 0 4.1-.6 6-1.7 1.9-1.2 3.5-2.8 4.8-4.9s2.2-4.5 2.5-7.3l6.4 1c-.3 2.2-.9 4.2-1.7 6.1l13.4 7.8-3.2 5.1-13-8c-1.8 2.4-4.1 4.3-6.7 5.7z" fill="#fff"/><path d="m172.2 54.9v10.9h-3.3v-10.9h-6.2v10.9h-4.8v5.7h31.7v-5.7h-11.2v-10.9zm-12.4-14.4v5.6h21.6v16.8h6.2v-22.4z" fill="#fcfcfc"/><path d="m201.2 54.9v4.4h22v1.7h-22v10.4h19.3c1.6 0 3.1-.1 4.7-.3 1.3-.1 2.5-.4 3.7-.9v-4.4c-1.2.4-2.4.7-3.7.8-1.5.2-3 .3-4.4.3l-13.9.1v-1.6h22v-10.5z" fill="#fcfcfc"/><path d="m221.2 48.6-8.7-3.4c.7-1.4 1.2-3 1.5-4.5l-5.2-.7c0 .3-1.2 8.2-9.6 7.8l-.2 5.2h.8c3.5.1 6.9-1.1 9.5-3.4l10.1 4z" fill="#fcfcfc"/><path d="m222.2 40h5.2v13.5h-5.2z" fill="#fcfcfc"/></svg>