<?xml version="1.0" encoding="utf-8"?>
<!-- Generator: Adobe Illustrator 26.0.1, SVG Export Plug-In . SVG Version: 6.00 Build 0)  -->
<svg version="1.1" id="레이어_1" xmlns="http://www.w3.org/2000/svg" xmlns:xlink="http://www.w3.org/1999/xlink" x="0px"
	 y="0px" viewBox="0 0 61 61" style="enable-background:new 0 0 61 61;" xml:space="preserve">
<style type="text/css">
	.st0{clip-path:url(#SVGID_00000098223493140852940070000004182808351546508982_);}
	.st1{fill:#EFBE50;}
</style>
<g id="그룹_4998" transform="translate(0 0)">
	<g>
		<defs>
			<rect id="SVGID_1_" x="0.2" y="0.9" width="60" height="60"/>
		</defs>
		<clipPath id="SVGID_00000168098658114197754010000009692107320090481571_">
			<use xlink:href="#SVGID_1_"  style="overflow:visible;"/>
		</clipPath>
		
			<g id="그룹_4997" transform="translate(0 0)" style="clip-path:url(#SVGID_00000168098658114197754010000009692107320090481571_);">
			<path id="패스_358" class="st1" d="M54.5,13.2C48.9,5.3,39.9,0.7,30.2,0.9c-6.3-0.1-12.5,1.9-17.6,5.7
				C-0.8,16.3-3.8,35.1,5.9,48.5s28.5,16.4,41.9,6.6S64.2,26.6,54.5,13.2C54.5,13.2,54.5,13.2,54.5,13.2 M30.2,56.8
				c-14.4,0-26-11.6-26-26c0-14.4,11.6-26,26-26c14.3,0,26,11.6,26,26C56.2,45.2,44.6,56.8,30.2,56.8C30.2,56.8,30.2,56.8,30.2,56.8
				"/>
			<path id="패스_359" class="st1" d="M26.2,42.8L14.9,31.5c-0.9-0.9-0.9-2.3,0-3.1c0.9-0.9,2.3-0.9,3.1,0l8.2,8.2l16.1-16.1
				c0.9-0.8,2.3-0.8,3.1,0.1c0.8,0.9,0.8,2.2,0,3L26.2,42.8z"/>
		</g>
	</g>
</g>
</svg>
