<?xml version="1.0" encoding="utf-8"?>
<!-- Generator: Adobe Illustrator 26.0.1, SVG Export Plug-In . SVG Version: 6.00 Build 0)  -->
<svg version="1.1" id="레이어_1" xmlns="http://www.w3.org/2000/svg" xmlns:xlink="http://www.w3.org/1999/xlink" x="0px"
	 y="0px" viewBox="0 0 62 60" style="enable-background:new 0 0 62 60;" xml:space="preserve">
<style type="text/css">
	.st0{fill:#EFBE50;}
</style>
<g>
	<g>
		<path class="st0" d="M30.8,48.2c-1.6,0-2.7-1.1-2.7-2.8c0-1.6,1.1-2.8,2.7-2.8c1.6,0,2.8,1.2,2.8,2.8
			C33.6,47.1,32.4,48.2,30.8,48.2z M30.7,18.4c1.2,0,2.5,0.3,2.6,1.5c0,0.4,0,1.1-0.1,1.7C32.9,25,32,32.9,31.6,38.2h-1.7
			c-0.4-5.2-1.2-12.9-1.5-16.5c0-0.6-0.1-1.4-0.1-1.8C28.2,18.7,29.5,18.4,30.7,18.4z"/>
	</g>
	<path class="st0" d="M56.9,55.3H4.8c-1.5,0-2.9-0.8-3.7-2.1c-0.8-1.3-0.8-2.9,0-4.3l26-45.1l0,0c0.8-1.3,2.2-2.1,3.7-2.1
		c1.5,0,2.9,0.8,3.7,2.1l26,45.1c0.8,1.3,0.8,2.9,0,4.3C59.8,54.5,58.4,55.3,56.9,55.3z M30.6,5.8l-26,45.1c0,0-0.1,0.1,0,0.3
		c0.1,0.1,0.2,0.1,0.2,0.1h52.1c0,0,0.2,0,0.2-0.1c0.1-0.1,0-0.2,0-0.3l-26-45.1c0,0-0.1-0.1-0.2-0.1C30.7,5.6,30.6,5.7,30.6,5.8z"
		/>
</g>
</svg>
